<?xml version="1.0" encoding="UTF-8"?>
<svg id="_Слой_1" data-name="Слой 1" xmlns="http://www.w3.org/2000/svg" viewBox="0 0 1024 1024">
  <defs>
    <style>
      .cls-1 {
        fill: #fff;
      }

      .cls-2 {
        fill: #e60800;
      }
    </style>
  </defs>
  <path id="zone" class="cls-2" d="M848.79,0H175.21C78.44,0,0,78.44,0,175.21v673.58c0,96.77,78.44,175.21,175.21,175.21h673.58c96.77,0,175.21-78.44,175.21-175.21V175.21c0-96.77-78.44-175.21-175.21-175.21Z"/>
  <path id="cloud" class="cls-1" d="M369.31,82.39h-133.14c-104.57,0-189.34,84.77-189.34,189.34v108.99c0,70.76,38.82,132.45,96.32,164.95.35.2-7.58,81.47-2.85,99.31,1.99,7.49,13.23,15.8,23.99,9.78,34.62-19.37,99.45-84.7,99.45-84.7h105.58c104.57,0,189.34-84.77,189.34-189.34v-108.99c0-104.57-84.77-189.34-189.34-189.34ZM298.98,505.5c-20.04,0-36.29-16.25-36.29-36.29s16.25-36.29,36.29-36.29,36.29,16.25,36.29,36.29-16.25,36.29-36.29,36.29ZM383.5,322.66c-13.83,15.94-47.66,37.49-50.8,57.6-1.44,9.25,3.39,25.84-8.87,27.77-6.42,1.02-44.38,1.04-49.59-.59-7.99-2.48-7.84-13.07-7.62-19.99.7-22.2,7.19-38.28,21.4-54.94,15.42-18.08,52.44-41.84,55-65.6,5.37-49.72-63.18-56.25-83.78-16.61-2.91,5.6-7.93,25.84-13.21,26.6-3.2.46-53.66-12.51-55.73-14.52-3.1-3.01.51-16.63,1.68-21.31,10.32-41.21,49.5-70.85,91.15-75.27,95.61-10.14,170.89,75.57,100.37,156.86Z"/>
  <path id="mon" class="cls-1" d="M928.13,244.22h-326.74c0,.81.03,1.62.03,2.43v44.38h293.94c13.66,0,24.73,9.29,24.73,20.74v329.52c0,11.45-11.07,20.74-24.73,20.74H364.92c-13.66,0-24.73-9.29-24.73-20.74v-29.17h-44.72v105.46c0,21.8,17.67,39.48,39.48,39.48h593.18c21.8,0,39.48-17.67,39.48-39.48v-433.88c0-21.8-17.67-39.48-39.48-39.48Z"/>
  <path id="ok" class="cls-1" d="M859.11,370.07l-21.93-18.4c-5.67-4.76-14.12-4.02-18.88,1.65l-117.99,140.61c-5.05,6.02-14.18,6.42-19.74.86l-43.23-43.23c-5.23-5.23-13.72-5.23-18.95,0l-20.23,20.23c-5.24,5.24-5.23,13.73.01,18.96l83.58,83.35c6.92,6.9,18.26,6.4,24.55-1.09l154.46-184.08c4.76-5.67,4.02-14.12-1.65-18.88Z"/>
  <path id="leg" class="cls-1" d="M785.96,861.56h-55.2l-16.58-65.69c-1.16-4.59-5.29-7.8-10.02-7.8h-145.29c-4.74,0-8.86,3.22-10.02,7.81l-16.51,65.68h-55.2c-19.68,0-35.63,15.95-35.63,35.63v11.41c0,7.21,5.84,13.05,13.05,13.05h353.99c7.21,0,13.05-5.84,13.05-13.05v-11.41c0-19.68-15.95-35.63-35.63-35.63Z"/>
</svg>